<svg xmlns="http://www.w3.org/2000/svg" width="360" height="640" viewBox="0 0 360 640">
  <defs>
    <linearGradient id="wash" x1="0" y1="0" x2="1" y2="1"><stop stop-color="#0f0b08"/><stop offset="1" stop-color="#4f3522"/></linearGradient>
    <filter id="soft"><feGaussianBlur stdDeviation="18"/></filter>
  </defs>
  <rect width="360" height="640" fill="url(#wash)"/>
  <circle cx="310" cy="76" r="82" fill="#f2b46f" opacity=".12" filter="url(#soft)"/>
  <text x="28" y="39" fill="#f2b46f" font-family="Arial,Helvetica,sans-serif" font-size="10" font-weight="700" letter-spacing="1.8">FLEET · FIXTURE PREVIEW</text>
  <g><rect x="61" y="91" width="238" height="276" fill="#4f3522" stroke="#f2b46f"/><path d="M72 105h16v16H72zm0 38h16v16H72zm0 38h16v16H72zm0 38h16v16H72zm0 38h16v16H72zm0 38h16v16H72zm0 38h16v16H72zm200-228h16v16h-16zm0 38h16v16h-16zm0 38h16v16h-16zm0 38h16v16h-16zm0 38h16v16h-16zm0 38h16v16h-16zm0 38h16v16h-16z" fill="#f2b46f"/><rect x="101" y="119" width="158" height="96" fill="#fff3df" opacity=".14"/><rect x="101" y="233" width="158" height="100" fill="#f2b46f" opacity=".3"/></g>
  <text x="28" y="430" fill="#fff3df" font-family="Arial,Helvetica,sans-serif" font-size="26" font-weight="800" letter-spacing="-.8">IMAGE SLIDESHOW</text>
  <text x="28" y="510" fill="#f2b46f" font-family="Arial,Helvetica,sans-serif" font-size="14" font-weight="700">Filmstrip</text>
  <line x1="28" y1="596" x2="332" y2="596" stroke="#f2b46f" opacity=".34"/>
  <text x="28" y="618" fill="#fff3df" opacity=".7" font-family="Arial,Helvetica,sans-serif" font-size="10">HTML / Canvas · 3/48</text>
</svg>